<?xml version="1.0" encoding="UTF-8" standalone="no"?>
<svg
   xml:space="preserve"
   id="svg2"
   width="2394.5339"
   height="473.12253"
   version="1.1"
   sodipodi:docname="nf-core-deepmodeloptim_logo_dark.svg"
   inkscape:version="1.1.2 (b8e25be8, 2022-02-05)"
   inkscape:export-filename="/Users/sjin/myprojects/deepmodeloptim/docs/images/nf-core-deepmodeloptim_logo_dark.png"
   inkscape:export-xdpi="300"
   inkscape:export-ydpi="300"
   xmlns:inkscape="http://www.inkscape.org/namespaces/inkscape"
   xmlns:sodipodi="http://sodipodi.sourceforge.net/DTD/sodipodi-0.dtd"
   xmlns="http://www.w3.org/2000/svg"
   xmlns:svg="http://www.w3.org/2000/svg"><sodipodi:namedview
     id="namedview46"
     pagecolor="#ffffff"
     bordercolor="#999999"
     borderopacity="1"
     inkscape:pageshadow="0"
     inkscape:pageopacity="0"
     inkscape:pagecheckerboard="0"
     showgrid="false"
     inkscape:zoom="0.3"
     inkscape:cx="1193.3333"
     inkscape:cy="308.33333"
     inkscape:window-width="1312"
     inkscape:window-height="847"
     inkscape:window-x="0"
     inkscape:window-y="25"
     inkscape:window-maximized="0"
     inkscape:current-layer="layer4" /><defs
     id="defs6"><linearGradient
       id="f"
       x2="1"
       gradientTransform="matrix(46.849143,37.83898,-36.602563,48.431686,706.86895,132.01687)"
       gradientUnits="userSpaceOnUse"><stop
         id="stop12"
         offset="0"
         stop-color="#0c542a" /><stop
         id="stop14"
         offset=".215"
         stop-color="#0c542a" /><stop
         id="stop16"
         offset=".58"
         stop-color="#25af64" /><stop
         id="stop18"
         offset=".847"
         stop-color="#25af64" /><stop
         id="stop20"
         offset="1"
         stop-color="#25af64" /></linearGradient><clipPath
       id="e"><path
         id="path9"
         d="m 280.17,136.33 -21.5,-21.584 h 61 v 21.584 z" /></clipPath></defs><style
     id="style22"
     type="text/css">.st0{fill:#24af63}.st1{font-family:&quot;Maven Pro&quot;;font-weight:&quot;bold&quot;}.st2{font-size:209.8672px}.st4{fill:#ecdc86}.st7{fill:#396e35}</style><linearGradient
     id="d"
     x1="295.45999"
     x2="333.34"
     y1="150.75"
     y2="180.35001"
     gradientUnits="userSpaceOnUse"><stop
       id="stop41"
       offset=".215"
       stop-color="#0D552B" /><stop
       id="stop43"
       offset=".311"
       stop-color="#176837" /><stop
       id="stop45"
       offset=".461"
       stop-color="#1F8448" /><stop
       id="stop47"
       offset=".604"
       stop-color="#239A56" /><stop
       id="stop49"
       offset=".736"
       stop-color="#24A860" /><stop
       id="stop51"
       offset=".847"
       stop-color="#25AF64" /></linearGradient><g
     inkscape:groupmode="layer"
     id="layer1"
     inkscape:label="background" /><g
     inkscape:groupmode="layer"
     id="layer4"
     inkscape:label="stuff"><g
       id="layer2"
       style="display:inline"
       transform="matrix(1.0983606,0,0,1.0438593,381.71127,-52.977812)"><g
         id="g4209"><path
           id="path24"
           d="m 1084.1,163.75 v 3.6 c -0.1,0 -0.1,0 -0.2,0.1 l -1.8,-1.5 c -4,-3.4 -8.3,-6.4 -13.1,-8.8 -0.8,-0.4 -1.6,-0.9 -2.5,-1.1 -0.1,-0.1 -0.2,-0.2 -0.3,-0.2 -1.8,-0.7 -3.6,-1.3 -5.5,-1.8 -4.1,-0.9 -8.2,-1 -12.3,-0.2 -5.3,1.1 -10,3.4 -14.5,6.4 -4.4,3 -8.4,6.5 -12.1,10.2 -0.7,0.7 -0.7,0.7 -1.1,-0.2 -2,-4.1 -4.2,-8.1 -6.9,-11.8 -2.1,-2.8 -4.4,-5.4 -7.4,-7.2 -3,-1.9 -6.3,-2.6 -9.8,-1.7 -4.3,1 -7.8,3.6 -11.1,6.4 -2,1.5 -3.8,3.3 -5.6,5 -1.7,1.5 -3.3,3 -5,4.5 -0.3,0.3 -0.5,0.3 -0.8,0 -1.7,-1.8 -3.5,-3.4 -5.6,-4.5 -3.1,-1.7 -6.3,-1.9 -9.6,-0.8 -2.8,0.9 -5.2,2.4 -7.7,4 -1,0.6 -1.9,1.3 -2.9,1.8 v -0.2 c 0.1,-0.2 0.1,-0.4 0.1,-0.6 0.2,-4.4 0.5,-8.9 1.2,-13.3 1,-6.1 2.5,-12 5.2,-17.5 2,-4.1 4.7,-7.9 8.1,-11 4.5,-4.1 9.8,-6.7 15.6,-8.3 6.3,-1.8 12.7,-2.6 19.2,-2.9 2.6,-0.1 5.1,-0.2 7.7,-0.3 1.3,0.5 2.6,0.8 3.9,1.2 1.9,0.6 3.8,1.2 5.7,1.7 1,0.4 1.9,0.7 2.9,1.1 3.7,1.3 7.3,3 10.4,5.5 0.8,0.6 1.6,1.3 2.4,2 -0.2,-0.6 -0.4,-1.1 -0.6,-1.7 -1.4,-3.7 -3.5,-6.7 -6.9,-8.8 -1.4,-0.9 -2.9,-1.5 -4.4,-2.3 0.1,0 0.3,0 0.4,-0.1 4.5,-0.8 9.1,-1.2 13.7,-1.4 3.9,-0.2 7.9,-0.1 11.8,0.3 4.6,0.5 9.1,1.4 13.4,3 6.4,2.4 11.9,6.1 16.2,11.5 3.7,4.7 6.1,10.1 7.6,15.9 1.5,5.7 2.1,11.6 2.3,17.5 -0.1,2.1 -0.1,4.3 -0.1,6.5"
           class="st0"
           style="fill:#24af63" /><path
           id="path26"
           d="m 1084.1,157.15 h 0.1 v 6.6 h -0.1 z"
           class="st4"
           style="fill:#ecdc86" /><path
           id="path28"
           d="m 1047.6,62.25 v 0.1 h -4.5 v -0.1 z"
           style="fill:#a0918f" /><path
           id="path30"
           d="m 1050.5,250.65 c 2.5,-1 4.9,-2.3 7.3,-3.6 2.8,-1.7 5.4,-3.5 8,-5.4 2.2,-1.6 4.3,-3.3 6.4,-5.1 l 3.6,-3 c 0.2,-0.2 0.2,-0.1 0.3,0.1 0.4,1.6 0.7,3.3 1.1,5 0.5,2.3 0.8,4.6 1.1,6.9 0.3,2.7 0.4,5.3 0.2,8 -0.2,3.3 -0.8,6.6 -2,9.7 q -1.05,2.85 -2.7,5.4 c -1.4,2.2 -3,4.2 -5,5.9 -2.3,2.1 -4.9,3.9 -7.7,5.4 -3.7,2.1 -7.7,3.6 -11.8,4.8 -3.9,1.2 -7.9,2 -11.9,2.7 -1.1,0.2 -2.2,0.4 -3.3,0.4 -2.3,-0.1 -4.6,-0.6 -6.8,-1.4 -3.3,-1.3 -6.2,-3.3 -9.5,-4.8 -1.8,-0.8 -3.6,-1.4 -5.5,-1.5 -2.5,-0.2 -4.6,0.7 -6.4,2.4 l -3.9,3.9 c -2.2,2.2 -4.8,3.7 -7.9,4.2 -2.1,0.3 -4.1,0.2 -6.2,-0.1 -2.9,-0.4 -5.7,-1.1 -8.4,-1.9 -4,-1.3 -7.7,-3.1 -11.1,-5.7 -3.2,-2.4 -5.7,-5.4 -7.8,-8.8 -2.1,-3.5 -3.3,-7.2 -4.2,-11.1 -0.4,-1.7 -0.6,-3.5 -0.8,-5.2 -0.3,-2.5 -0.4,-4.9 -0.3,-7.4 0.1,-3.5 0.4,-6.9 0.9,-10.4 0.4,0.4 0.8,0.7 1.1,1 2.2,2 4.7,3.8 7.3,5.4 2.9,1.7 6.1,3.1 9.4,4 2.2,0.6 4.5,1 6.8,1.1 1.9,0.2 3.8,0.2 5.7,0.1 2.2,-0.1 4.5,-0.3 6.7,-0.9 0.3,0 0.6,0 0.8,-0.1 q 3,-0.6 6,-1.5 c 2.3,-0.7 4.5,-1.4 6.7,-2.2 2.1,-0.8 4.3,-1.7 6.4,-2.6 0.6,-0.3 1,-0.2 1.5,0.2 3.5,2.7 7.3,5 11.4,6.7 4.6,1.8 9.3,2.7 14.2,2.3 3.6,-0.7 7,-1.6 10.3,-2.9"
           class="st0"
           style="fill:#24af63" /><path
           id="path32"
           d="m 1050.5,250.65 c -3.3,1.3 -6.7,2.2 -10.2,2.5 -4.9,0.4 -9.6,-0.5 -14.2,-2.3 -4.1,-1.6 -7.9,-3.9 -11.4,-6.7 -0.5,-0.4 -0.9,-0.5 -1.5,-0.2 -2.1,0.9 -4.2,1.8 -6.4,2.6 -2.2,0.8 -4.4,1.6 -6.7,2.2 -2,0.6 -4,1 -6,1.5 -0.3,0.1 -0.6,0.1 -0.8,0.1 l 2.1,-2.4 c 2.8,-3.2 4.8,-6.9 5.9,-11.1 1.6,-5.6 3.2,-11.3 4.6,-17 1,-4.2 1.8,-8.4 2.4,-12.7 0.4,-3.1 1,-14.9 0.8,-17.7 -0.5,-8.6 -2.4,-16.8 -5.9,-24.7 -2.1,-4.7 -5.7,-7.9 -10.7,-9.2 -2.2,-0.6 -4.4,-0.4 -6.5,0.3 -0.2,0.1 -0.3,0.2 -0.5,0.1 3.3,-2.8 6.7,-5.4 11.1,-6.4 3.5,-0.8 6.8,-0.2 9.8,1.7 3,1.9 5.3,4.4 7.4,7.2 2.7,3.7 4.9,7.7 6.9,11.8 0.4,0.9 0.4,0.9 1.1,0.2 3.7,-3.8 7.7,-7.3 12.1,-10.2 4.4,-3 9.2,-5.3 14.5,-6.4 4.1,-0.8 8.2,-0.7 12.3,0.2 1.9,0.4 3.7,1 5.5,1.8 0.1,0.1 0.3,0.1 0.3,0.2 -5.3,0.1 -9.8,2.1 -13.9,5.2 -2,1.5 -3.8,3.2 -5.2,5.3 -1.1,1.7 -2.1,3.6 -2.9,5.5 -1.8,3.8 -3.3,7.8 -4.4,11.9 -0.9,3.5 -1.5,7.1 -1.8,10.7 -0.2,2.8 -0.3,5.6 -0.2,8.4 0.1,3.4 0.5,6.8 0.9,10.3 0.7,5.7 1.7,11.4 2.7,17.1 0.5,3.1 0.9,6.3 1.5,9.5 0.7,4.6 3.3,8 7,10.6 0,-0.1 0.2,0 0.3,0.1"
           class="st4"
           style="fill:#ecdc86" /><path
           id="path34"
           d="m 1043.1,62.35 h 4.5 c 3.6,0.2 7.2,0.8 10.6,2 2.7,0.9 3.3,2.7 1.7,5 -1.1,1.6 -2.7,2.8 -4.4,3.9 -2.1,1.4 -4.4,2.6 -6.9,3.5 -2.5,1 -4.9,0 -6.5,-2.5 -0.5,-0.8 -0.9,-1.6 -1.1,-2.5 -0.1,-0.3 -0.2,-0.4 -0.5,-0.4 -5.6,-1 -10.6,0.3 -14.7,4.3 -3.4,3.2 -5.4,7.3 -6.8,11.7 -1.3,4 -1.9,8 -2.1,12.2 -0.2,3.7 0.1,7.4 0.6,11 0.1,0.6 0.3,1.2 0.3,1.9 0.1,0.8 -0.2,1.5 -0.8,1.9 -0.7,0.5 -1.5,0.4 -2.3,0.4 -1.9,-0.6 -3.8,-1.2 -5.7,-1.7 v -1.3 c 0,-2 0,-3.9 0.1,-5.9 0.4,-7.7 1.6,-15.3 4.6,-22.5 2.2,-5.4 5.4,-10.1 9.9,-13.8 3.7,-3.1 7.9,-5.1 12.6,-6.2 2.4,-0.6 4.6,-0.9 6.9,-1"
           style="fill:#3f2b29" /><path
           id="path36"
           d="m 1014.8,114.65 c 0.8,0 1.6,0.1 2.3,-0.4 0.7,-0.5 0.9,-1.2 0.8,-1.9 -0.1,-0.6 -0.2,-1.3 -0.3,-1.9 0.4,0 0.7,-0.1 1.1,-0.1 1.4,0.8 2.9,1.5 4.4,2.3 3.4,2.1 5.5,5.1 6.9,8.8 0.2,0.6 0.4,1.1 0.6,1.7 -0.8,-0.7 -1.6,-1.4 -2.4,-2 -3.2,-2.4 -6.7,-4.1 -10.4,-5.5 -1.1,-0.3 -2,-0.6 -3,-1"
           class="st7"
           style="fill:#396e35" /><path
           id="path38"
           d="m 1009.1,111.65 v 1.3 c -1.3,-0.4 -2.6,-0.7 -3.9,-1.2 1.4,-0.1 2.7,-0.1 3.9,-0.1"
           class="st7"
           style="fill:#396e35" /></g></g><text
       id="text53"
       x="435.25281"
       y="213.02283"
       font-size="209.87"
       font-weight="bold"
       style="font-weight:700;font-size:209.87px;font-family:'Maven Pro'"><tspan
         id="tspan55"
         x="435.25281"
         y="213.02283"
         class="st0 st1 st2"
         font-size="209.87"
         font-weight="bold"
         style="font-weight:700;font-size:209.867px;font-family:'Maven Pro';fill:#24af63">nf-</tspan></text><text
       id="text69"
       x="777.49481"
       y="213.02283"
       font-size="209.87"
       font-weight="bold"
       style="font-weight:700;font-size:209.87px;font-family:'Maven Pro'"><tspan
         id="tspan71"
         x="777.49481"
         y="213.02283"
         class="st0 st1 st2"
         font-size="209.87"
         font-weight="bold"
         style="font-weight:700;font-size:209.867px;font-family:'Maven Pro';fill:#24af63"><tspan
           id="tspan73"
           style="fill:#fafafa">core/</tspan></tspan></text><text
       id="text59"
       x="126.30383"
       y="428.82285"
       font-weight="bold"
       style="font-weight:700;font-family:'Maven Pro'"><tspan
         id="tspan61"
         x="434.2038"
         y="428.82285"
         class="st1 st2"
         font-size="209.87"
         font-weight="bold"
         style="font-weight:700;font-size:209.867px;font-family:'Maven Pro';fill:#fafafa">deepmodeloptim</tspan></text><path
       id="path67"
       d="m 712.69187,131.91313 -26.59122,27.5967 h 75.44636 v -27.59798 z"
       style="fill:url(#f);stroke-width:1.25564" /><path
       id="path3"
       style="fill:#86cb9e;fill-opacity:1;stroke:none;stroke-width:10.6177;stroke-linecap:square;stroke-dasharray:none"
       d="M 203.75717,6.13013 4.1983791,121.34674 V 351.77719 L 203.75717,466.99239 403.31598,351.77719 V 121.34674 Z"
       sodipodi:nodetypes="ccccccc" /><path
       id="path4"
       style="fill:#ffffff;fill-opacity:1;stroke:#000000;stroke-width:7.30955;stroke-linecap:square;stroke-dasharray:none;stroke-opacity:1"
       d="m 96.076114,257.63007 c 4e-5,41.12419 48.707696,74.46189 108.791526,74.46178 60.08384,1.1e-4 108.79152,-33.33759 108.79154,-74.46178 0,-148.40715 -217.583066,-149.53453 -217.583066,0 z"
       sodipodi:nodetypes="cccc" /><path
       id="ellipse4"
       style="fill:#ffffff;fill-opacity:1;stroke:#000000;stroke-width:6.24807;stroke-linecap:square;stroke-dasharray:none;stroke-opacity:1"
       d="M 202.70775,312.86681 C 132.15036,289.54025 96.717971,367.978 106.13253,399.6703 c 32.95109,44.43735 199.03329,51.49797 199.03438,-23.5357 -8.23724,-29.33874 -23.67777,-86.59435 -102.45916,-63.26779 z"
       sodipodi:nodetypes="cccc" /><path
       id="path17"
       style="fill:#fcfdef;fill-opacity:1;stroke-width:0.179157"
       d="m 204.57711,68.749805 c 0.001,0.0027 0.005,0.0053 0.005,0.008 -0.001,0.0053 -0.003,0.01062 -0.005,0.01593 -0.48573,0.02389 -0.96507,0.09264 -1.43782,0.206514 -0.98649,0.23757 -1.88129,0.663099 -2.66602,1.310087 -0.95511,0.78738 -1.62166,1.78252 -2.09282,2.917257 -0.6331,1.525308 -0.87951,3.129345 -0.96997,4.765501 -0.0239,0.412948 -0.0239,0.826692 -0.0305,1.240091 0,3.71e-4 0,6.9e-4 0,0.0014 -0.27041,0.008 -0.54071,0.01593 -0.81111,0.02124 -6.6e-4,-2.92e-4 -0.001,-4.25e-4 -0.002,-6.91e-4 -0.54553,0.02124 -1.09136,0.03371 -1.63621,0.06371 -1.37706,0.07565 -2.74291,0.233324 -4.07339,0.615507 -1.22721,0.352719 -2.35433,0.898281 -3.30947,1.761816 -0.72715,0.657286 -1.28723,1.441428 -1.71563,2.31996 -0.57285,1.174606 -0.89626,2.423748 -1.09805,3.708751 -0.14626,0.932284 -0.22669,1.869904 -0.25987,2.812275 -0.002,0.04114 0.0106,0.08627 -0.0212,0.1229 v 0.0515 c 0.22164,-0.100868 0.41377,-0.251638 0.61935,-0.378944 0.52202,-0.323175 1.04385,-0.645661 1.63305,-0.837363 0.70342,-0.22881 1.38364,-0.185809 2.04003,0.16776 0.45661,0.245533 0.83715,0.585245 1.19143,0.957023 0.0608,0.06371 0.0958,0.06477 0.16272,0.008 0.36479,-0.308815 0.71775,-0.630848 1.06933,-0.954209 0.392,-0.360683 0.77031,-0.736734 1.19252,-1.063413 0.0403,0.01062 0.0746,-0.01062 0.11069,-0.02124 0.4564,-0.142542 0.91994,-0.180766 1.38463,-0.05973 1.07517,0.280386 1.83311,0.962571 2.2734,1.957792 0.73432,1.660789 1.13261,3.411961 1.24569,5.224582 0.0374,0.599288 0.0467,1.199744 0.0106,1.801022 -0.038,0.654606 -0.0934,1.30661 -0.18103,1.95673 -0.12184,0.906777 -0.3025,1.802457 -0.50809,2.693307 -0.27924,1.21089 -0.63114,2.40233 -0.96751,3.59819 -0.24606,0.87495 -0.66429,1.65705 -1.25864,2.34478 -0.14679,0.16989 -0.29305,0.34022 -0.43949,0.51018 -0.46179,0.12821 -0.93815,0.16086 -1.41157,0.19006 -0.40243,0.0239 -0.80705,0.0186 -1.21105,-0.0159 -0.48934,-0.0401 -0.97218,-0.11759 -1.44517,-0.24367 -0.69867,-0.18608 -1.35909,-0.47281 -1.98189,-0.83806 -0.55114,-0.32293 -1.06432,-0.70291 -1.53683,-1.13513 -0.077,-0.0703 -0.15555,-0.13962 -0.24261,-0.2174 -0.11335,0.74709 -0.16962,1.47766 -0.1882,2.21042 -0.0133,0.52201 0.0186,1.04239 0.0717,1.56239 0.038,0.37108 0.0868,0.74129 0.16696,1.10362 0.18342,0.82614 0.45457,1.621 0.88878,2.35598 0.432,0.73074 0.97765,1.35975 1.64882,1.87415 0.70857,0.54352 1.49929,0.93563 2.34894,1.20864 0.58204,0.18714 1.17485,0.32668 1.78037,0.41289 0.43604,0.0621 0.87246,0.0847 1.30871,0.0133 0.6566,-0.10884 1.20986,-0.42137 1.6824,-0.88249 0.28081,-0.2741 0.55049,-0.55931 0.83558,-0.82895 0.38027,-0.35986 0.83104,-0.54179 1.36294,-0.50596 0.41339,0.0279 0.79733,0.15422 1.16974,0.32681 0.67903,0.31421 1.30208,0.73857 2.00258,1.01022 0.46112,0.17891 0.93568,0.29034 1.43081,0.30266 0.23438,0.005 0.46494,-0.0358 0.69495,-0.0749 0.8483,-0.14333 1.68855,-0.32524 2.51134,-0.5763 0.86197,-0.26331 1.70188,-0.58405 2.49489,-1.02142 0.58429,-0.32224 1.12983,-0.69686 1.62363,-1.14386 0.40533,-0.36751 0.7556,-0.78534 1.05008,-1.24779 0.22961,-0.36055 0.42349,-0.73976 0.57107,-1.14039 0.24501,-0.66536 0.3716,-1.35649 0.41324,-2.06171 0.0337,-0.56457 0.0106,-1.1302 -0.0504,-1.69254 -0.0533,-0.48709 -0.1298,-0.97133 -0.22536,-1.45215 -0.0701,-0.35293 -0.13458,-0.70711 -0.22695,-1.05535 -0.0133,-0.0523 -0.0159,-0.0711 -0.0661,-0.0279 -0.25562,0.21501 -0.51644,0.42407 -0.77015,0.64107 -0.43939,0.37621 -0.89135,0.73668 -1.35314,1.08404 -0.54732,0.41159 -1.10957,0.80272 -1.69989,1.15297 -0.49515,0.29358 -1.00411,0.55679 -1.53821,0.77156 v -3.4e-4 h -3.7e-4 c -0.0313,-0.0212 -0.0619,-0.0441 -0.0932,-0.0664 -0.78807,-0.55719 -1.32193,-1.28254 -1.47734,-2.25313 -0.10697,-0.66734 -0.19908,-1.33647 -0.3076,-2.0036 -0.1951,-1.20415 -0.40891,-2.40528 -0.56547,-3.61569 -0.0934,-0.722244 -0.16165,-1.446157 -0.19005,-2.172644 -0.0239,-0.591431 -0.0133,-1.183578 0.0372,-1.77546 0.064,-0.76479 0.18554,-1.519043 0.37825,-2.261855 0.22483,-0.86826 0.5406,-1.70318 0.92624,-2.51206 0.18899,-0.396172 0.38263,-0.791388 0.62426,-1.158229 0.29069,-0.441827 0.66777,-0.805615 1.09105,-1.121809 0.87675,-0.655057 1.83991,-1.079472 2.95293,-1.101212 -0.0133,-0.03106 -0.0449,-0.0353 -0.0722,-0.04698 -0.37804,-0.156079 -0.76591,-0.282509 -1.16452,-0.374777 0.39906,0.09237 0.78674,0.218193 1.16524,0.374432 0.0273,0.01062 0.0581,0.01593 0.0719,0.04645 0.1943,0.03929 0.36334,0.142012 0.53712,0.228811 1.00329,0.501658 1.90999,1.146682 2.76681,1.865763 0.12847,0.108035 0.25907,0.213681 0.38874,0.320176 0.0159,-0.0053 0.0321,-0.008 0.048,-0.01062 v -0.761764 c -1.8e-4,-0.4667 -1.6e-4,-0.933665 -3.4e-4,-1.400364 -0.0345,-1.252089 -0.17042,-2.491144 -0.48882,-3.705619 -0.3207,-1.224085 -0.82106,-2.364263 -1.60578,-3.366199 -0.89959,-1.148619 -2.05943,-1.936662 -3.42147,-2.440312 -0.92087,-0.340402 -1.8738,-0.532237 -2.84798,-0.633688 -0.83353,-0.08653 -1.66973,-0.09928 -2.50505,-0.0661 -0.97146,0.03822 -1.939,0.133517 -2.89905,0.293206 -0.0297,0.0053 -0.0592,0.008 -0.0889,0.01062 0.15794,0.08839 0.31901,0.170414 0.47973,0.253232 -0.16085,-0.08308 -0.32264,-0.16484 -0.48079,-0.253232 -0.0743,0.008 -0.14865,0.01327 -0.22324,0.02123 v -3.45e-4 c -0.12104,-0.773072 -0.17386,-1.549277 -0.13643,-2.332197 0.0422,-0.880788 0.17492,-1.745066 0.44297,-2.585534 0.29718,-0.931621 0.72239,-1.792794 1.43991,-2.479863 0.88124,-0.843786 1.93111,-1.118624 3.12159,-0.907678 0.0608,0.01062 0.0839,0.0361 0.10008,0.09264 0.0539,0.188729 0.13298,0.367981 0.23518,0.535714 0.32429,0.532343 0.83494,0.729328 1.37063,0.527326 0.51127,-0.19271 0.99737,-0.436678 1.45109,-0.741484 0.34778,-0.233589 0.68346,-0.485414 0.92623,-0.834549 0.33996,-0.488864 0.21395,-0.858571 -0.35027,-1.051839 -0.73007,-0.250312 -1.48247,-0.378998 -2.25241,-0.413957 h -6.6e-4 c -6.9e-4,-0.008 -10e-4,-0.01593 -10e-4,-0.02389 z m -7.5575,10.63885 c 0.11892,0.03451 0.2381,0.06822 0.35588,0.106707 -0.11786,-0.03849 -0.23704,-0.0722 -0.35588,-0.106707 z m 2.22722,0.01593 c 4.8e-4,0.01327 5e-4,0.02681 0,0.03982 5.3e-4,-0.01327 4.5e-4,-0.02654 0,-0.03982 z m 1.0753,0.03637 c 3.2e-4,2.12e-4 6.7e-4,1.85e-4 0.001,3.71e-4 0.003,0.002 0.005,0.0053 0.0106,0.008 -0.003,-0.002 -0.008,-0.0053 -0.0106,-0.008 z m -2.93615,0.0568 1.19743,0.366363 c 0.0839,-0.0014 0.16882,0.0027 0.25111,-0.008 0.0406,-0.0053 0.0802,-0.01327 0.11945,-0.02389 -0.039,0.01327 -0.0788,0.02124 -0.11945,0.02389 -0.0828,0.01062 -0.16803,0.0053 -0.25217,0.008 -0.39862,-0.121838 -0.79752,-0.24341 -1.19637,-0.365646 0,-3.72e-4 2e-5,-6.9e-4 0,-0.0014 z m 1.85352,0.01593 c -0.003,0.01858 -0.008,0.03504 -0.0133,0.05203 0.005,-0.01593 0.0106,-0.03424 0.0133,-0.05203 z m 1.33143,0.09476 c 0.008,0.0053 0.0159,0.01062 0.0239,0.01858 -0.008,-0.0053 -0.0159,-0.01062 -0.0239,-0.01858 z m -1.51583,0.175988 c -0.0106,0.008 -0.0212,0.01327 -0.03,0.01858 0.0106,-0.0053 0.0212,-0.01062 0.03,-0.01858 z m 1.74745,0.01327 c 0.0106,0.008 0.0186,0.01593 0.0279,0.02654 -0.008,-0.008 -0.0186,-0.01593 -0.0279,-0.02654 z m -1.79401,0.01327 c -0.0159,0.008 -0.0303,0.01327 -0.0459,0.01858 0.0159,-0.0053 0.0308,-0.01062 0.0459,-0.01858 z m 2.00292,0.193242 c 0.0106,0.01062 0.0212,0.02389 0.031,0.03424 -0.0106,-0.01062 -0.0212,-0.02389 -0.031,-0.03424 z m -1.79333,0.09476 c 0.1821,0.06609 0.36207,0.135906 0.53959,0.21076 -0.17758,-0.07485 -0.35757,-0.144666 -0.53959,-0.21076 z m 1.97563,0.121306 c 0.0159,0.02124 0.0313,0.04088 0.0464,0.06158 -0.0159,-0.02124 -0.0308,-0.04114 -0.0464,-0.06158 z m -1.40387,0.102461 c 0.18342,0.07804 0.36443,0.161654 0.54169,0.251639 -0.17731,-0.08998 -0.35808,-0.173599 -0.54169,-0.251639 z m 1.57044,0.131659 c 0.0159,0.02389 0.0318,0.04937 0.0472,0.07459 -0.0159,-0.02389 -0.0313,-0.0499 -0.0472,-0.07459 z m -1.0095,0.130066 c 0.17705,0.09052 0.35083,0.187668 0.52031,0.292862 -0.16935,-0.105115 -0.34324,-0.202266 -0.52031,-0.292862 z m 1.16696,0.134579 c 0.0133,0.02124 0.0239,0.04433 0.0353,0.06689 -0.0106,-0.02124 -0.0239,-0.0446 -0.0353,-0.06689 z m -0.5973,0.189526 c 0.0733,0.04645 0.14599,0.09397 0.21766,0.143338 -0.0717,-0.04964 -0.1444,-0.09715 -0.21766,-0.143338 z m 0.72293,0.06132 c 0.0159,0.0369 0.0335,0.07432 0.0496,0.112016 -0.0159,-0.03769 -0.0326,-0.07512 -0.0496,-0.112016 z m -0.48953,0.09343 c 0.0767,0.05362 0.15237,0.109097 0.22696,0.166432 -0.0746,-0.05734 -0.15051,-0.113078 -0.22696,-0.166432 z m 0.605,0.178377 c 0.008,0.02124 0.0186,0.04167 0.0265,0.06291 0.005,0.01327 0.008,0.02654 0.0133,0.03822 -0.005,-0.01327 -0.0106,-0.02654 -0.0133,-0.03822 -0.008,-0.02124 -0.0159,-0.04194 -0.0239,-0.06291 z m -0.34433,0.01327 c 0.15395,0.120245 0.30332,0.246861 0.45385,0.375786 -0.15077,-0.129005 -0.29987,-0.255621 -0.45385,-0.375786 z m 0.4878,0.389084 c 0.002,0.008 0.005,0.01327 0.008,0.02124 -4.5e-4,-3.72e-4 -6.9e-4,-6.64e-4 -0.001,-0.0014 -0.002,-0.008 -0.005,-0.01327 -0.005,-0.01858 z m -6.65261,5.513994 c 0.53853,-0.01593 1.04802,0.13856 1.53158,0.435988 0.17014,0.104584 0.32827,0.221113 0.47938,0.345366 -0.15103,-0.124227 -0.31035,-0.24049 -0.48042,-0.345021 -0.55026,-0.338597 -1.13426,-0.491147 -1.75659,-0.417089 0.0759,-0.008 0.15131,-0.01593 0.22616,-0.01858 z m -0.3765,0.043 c -0.0573,0.01062 -0.1144,0.01858 -0.17254,0.03265 2.4e-4,-5.3e-5 4.3e-4,-2.66e-4 6.7e-4,-3.45e-4 0.0579,-0.01327 0.11467,-0.02124 0.17174,-0.03212 z m 12.10568,0.826506 c 0.43464,0.008 0.86834,0.06318 1.30133,0.163512 -0.75813,-0.175457 -1.5191,-0.211822 -2.28214,-0.100868 0.32735,-0.04778 0.65432,-0.06848 0.98081,-0.06264 z m -1.72264,0.216335 c -0.40955,0.109097 -0.80386,0.253762 -1.18517,0.426884 0.38144,-0.173334 0.77541,-0.317814 1.18517,-0.426884 z m -7.63482,0.02389 c 0.2659,0.265176 0.50668,0.55626 0.73273,0.861836 0.57779,0.780664 1.03899,1.629918 1.45844,2.503301 0.0438,0.09131 0.0664,0.136702 0.0958,0.141746 -0.03,-0.0053 -0.0526,-0.04911 -0.0969,-0.141481 -0.41945,-0.87317 -0.88034,-1.72261 -1.4581,-2.503301 -0.22615,-0.305603 -0.46619,-0.597111 -0.73203,-0.862181 z m 15.66051,0.582246 c -0.008,0.0027 -0.0159,0.0053 -0.0239,0.0053 1.8e-4,0.466593 1.8e-4,0.933213 3.4e-4,1.400019 0.008,6.9e-4 0.0159,0.002 0.0239,0.0053 z m -10.02757,0.24633 c -0.0979,0.0568 -0.19536,0.114406 -0.29182,0.174661 0.0964,-0.06025 0.19403,-0.117591 0.29182,-0.174661 z" /><path
       id="path10"
       style="fill:#ffffff;fill-opacity:1;stroke:#000000;stroke-width:7.30955;stroke-linecap:square;stroke-dasharray:none;stroke-opacity:1"
       d="m 201.93576,129.39595 c -48.07035,0.21702 -95.34742,34.24531 -104.304675,107.21544 -1.007062,6.64472 -1.555518,13.64083 -1.555518,21.01868 4e-5,41.12419 48.707693,74.46189 108.791523,74.46178 60.08384,1.1e-4 108.79151,-33.33759 108.79153,-74.46178 0,-1.15409 -0.052,-2.27242 -0.0783,-3.4087 -0.36976,-80.83025 -56.48843,-125.07443 -111.64467,-124.82542 z" /><g
       id="g2"
       transform="matrix(2.6544168,0,0,2.6544168,-73.84612,-55.026067)"><g
         id="g1"><path
           id="rect41"
           style="fill:#dad2b7;fill-opacity:1;stroke:#000000;stroke-width:1.68207;stroke-linecap:round;stroke-dasharray:none;stroke-opacity:1"
           d="m 104.50927,138.5965 c -0.85994,0 -1.72017,0.32982 -2.3791,0.98875 l -11.348295,11.34831 3e-6,4.75776 11.348292,11.34873 c 1.31787,1.31786 3.43989,1.31786 4.75776,-1e-5 l 11.34873,-11.34873 c 1.31786,-1.31786 1.31787,-3.43989 1e-5,-4.75775 l -11.34874,-11.3483 c -0.65893,-0.65894 -1.51872,-0.98876 -2.37866,-0.98876 z"
           sodipodi:nodetypes="sscccssccs" /><circle
           style="fill:#000000;fill-opacity:1;stroke:none;stroke-width:7.50464;stroke-linecap:round;stroke-dasharray:none;stroke-opacity:1"
           id="path41"
           cx="104.5816"
           cy="148.46652"
           r="2.0485992" /><circle
           style="fill:#000000;fill-opacity:1;stroke:none;stroke-width:7.50464;stroke-linecap:round;stroke-dasharray:none;stroke-opacity:1"
           id="circle41"
           cx="104.5816"
           cy="158.15854"
           r="2.0485992" /></g><g
         id="g38"
         transform="translate(-5.3142906,-147.91195)"><path
           id="path37"
           style="fill:#ffffff;fill-opacity:1;stroke:#000000;stroke-width:2;stroke-linecap:round;stroke-dasharray:none;stroke-opacity:1"
           d="m 81.714042,302.7297 c 4.62135,-3.38021 12.440743,-6.29277 16.952437,-2.76753 3.509211,2.74195 4.294591,11.37957 1.10008,13.31487 -8.980092,5.44031 -20.281175,10.4899 -25.223597,3.58397 -3.074197,-4.2955 2.9076,-11.01286 7.17108,-14.13131 z"
           sodipodi:nodetypes="aasaa" /><path
           id="path38-6"
           style="fill:#ffffff;fill-opacity:1;stroke:#000000;stroke-width:2;stroke-linecap:round;stroke-dasharray:none;stroke-opacity:1"
           d="m 136.87661,302.7297 c -4.7387,-3.21364 -12.6882,-6.58839 -16.95244,-2.76753 -3.19979,2.86709 -3.04795,12.81152 2.72813,14.10446 0,0 18.97165,10.57298 23.45027,4.02731 3.37332,-4.93023 -4.28185,-12.0113 -9.22596,-15.36424 z"
           sodipodi:nodetypes="assaa" /></g></g><path
       id="path2"
       style="fill:#f9f9f9;stroke:#000000;stroke-width:10.6177;stroke-linecap:square;stroke-dasharray:none"
       d="M 204.86764,6.13013 5.3088332,121.34674 V 351.77722 L 204.86764,466.99242 404.42646,351.77722 V 121.34674 Z m -2.52257,43.511943 164.06178,94.721907 V 333.80509 L 202.34507,428.52562 38.28469,333.80509 V 144.36398 Z" /><g
       id="g36"
       transform="matrix(2.6544168,0,0,2.6544168,-90.602607,-440.62284)"><g
         id="g35"><path
           id="path31"
           style="fill:#000000;fill-opacity:1;stroke:#000000;stroke-width:2;stroke-linecap:round;stroke-dasharray:none;stroke-opacity:1"
           d="m 66.613439,203.82308 c -3.409587,16.70778 0.950415,32.15663 5.846492,47.95088 l 26.57491,-32.76922 C 85.45588,211.84577 78.871123,205.25641 66.613439,203.82308 Z"
           sodipodi:nodetypes="cccc" /><path
           id="path32-2"
           style="fill:#fab7af;fill-opacity:1;stroke:none;stroke-width:2;stroke-linecap:round;stroke-dasharray:none;stroke-opacity:1"
           d="m 69.854613,214.64899 c -1.547841,24.8368 4.370765,20.53274 9.266847,36.32699 L 93.904333,224.5182 c -6.021576,-5.12826 -12.64898,-5.69022 -24.04972,-9.86921 z"
           sodipodi:nodetypes="cccc" /></g><g
         id="g34"
         transform="matrix(-1,0,0,1,220.67854,0)"><path
           id="path33"
           style="fill:#000000;fill-opacity:1;stroke:#000000;stroke-width:2;stroke-linecap:round;stroke-dasharray:none;stroke-opacity:1"
           d="m 64.396784,205.15307 c -3.409587,16.70778 3.16707,30.82664 8.063147,46.62089 l 26.57491,-34.77083 C 85.45588,209.84416 76.654468,206.5864 64.396784,205.15307 Z"
           sodipodi:nodetypes="cccc" /><path
           id="path34-7"
           style="fill:#fab7af;fill-opacity:1;stroke:none;stroke-width:2;stroke-linecap:round;stroke-dasharray:none;stroke-opacity:1"
           d="m 68.167125,213.14732 c -2.434503,21.73348 3.484102,24.52272 11.483502,36.77032 L 94.4335,223.45986 C 88.411924,218.3316 79.567865,217.32631 68.167125,213.14732 Z"
           sodipodi:nodetypes="cccc" /></g></g><path
       id="path6"
       style="fill:#000000;fill-opacity:1;stroke:none;stroke-width:8.01034;stroke-linecap:square;stroke-dasharray:none"
       d="m 96.130251,257.6082 c 39.654839,-19.21145 86.245079,-6.05773 108.737389,-105.36096 7.79897,75.832 54.09383,96.43078 108.73739,105.05097 C 315.68402,96.716064 99.775519,76.978463 96.130251,257.6082 Z"
       sodipodi:nodetypes="cccc" /><g
       id="g5"
       transform="matrix(2.6544168,0,0,2.6544168,-72.735644,-55.026067)"><circle
         style="fill:#000000;fill-opacity:1;stroke:#ffffff;stroke-width:3;stroke-linecap:square;stroke-dasharray:none;stroke-opacity:1"
         id="path7"
         cx="88.70665"
         cy="106.81986"
         r="9.9933004" /><circle
         style="fill:#ffffff;fill-opacity:1;stroke:none;stroke-width:2.03571;stroke-linecap:square;stroke-dasharray:none;stroke-opacity:1"
         id="path8"
         cx="85.970116"
         cy="104.19697"
         r="3.1917422" /><circle
         style="fill:#ffffff;fill-opacity:1;stroke:none;stroke-width:1.33928;stroke-linecap:square;stroke-dasharray:none;stroke-opacity:1"
         id="circle8"
         cx="91.261688"
         cy="110.1605"
         r="2.0998304" /><circle
         style="fill:#000000;fill-opacity:1;stroke:#ffffff;stroke-width:3;stroke-linecap:square;stroke-dasharray:none;stroke-opacity:1"
         id="circle11"
         cx="-120.45665"
         cy="-106.81986"
         r="9.9933004"
         transform="scale(-1)" /><g
         id="g1134"><circle
           style="fill:#ffffff;fill-opacity:1;stroke:none;stroke-width:2.03571;stroke-linecap:square;stroke-dasharray:none;stroke-opacity:1"
           id="circle12"
           cx="117.72012"
           cy="104.19697"
           r="3.1917422" /><circle
           style="fill:#ffffff;fill-opacity:1;stroke:none;stroke-width:1.33928;stroke-linecap:square;stroke-dasharray:none;stroke-opacity:1"
           id="circle13"
           cx="123.0117"
           cy="110.1605"
           r="2.0998304" /></g></g><g
       id="g6"
       transform="matrix(2.6544168,0,0,2.6544168,-75.544924,-55.026067)"><path
         style="fill:none;fill-opacity:1;stroke:#000000;stroke-width:2;stroke-linecap:round;stroke-dasharray:none;stroke-opacity:1"
         id="path23"
         d="M 84.247356,123.69208 77.290923,122.7034"
         sodipodi:nodetypes="cc" /><path
         style="fill:none;fill-opacity:1;stroke:#000000;stroke-width:2;stroke-linecap:round;stroke-dasharray:none;stroke-opacity:1"
         id="path24-0"
         d="m 84.028533,127.18667 -6.518787,2.622"
         sodipodi:nodetypes="cc" /><path
         style="fill:none;fill-opacity:1;stroke:#000000;stroke-width:2;stroke-linecap:round;stroke-dasharray:none;stroke-opacity:1"
         id="path25"
         d="m 127.03262,123.16291 6.95644,-0.98868"
         sodipodi:nodetypes="cc" /><path
         style="fill:none;fill-opacity:1;stroke:#000000;stroke-width:2;stroke-linecap:round;stroke-dasharray:none;stroke-opacity:1"
         id="path26-3"
         d="m 127.25145,127.18667 6.51878,2.622"
         sodipodi:nodetypes="cc" /></g><g
       id="g29"
       transform="matrix(2.3531869,0,0,2.0432717,-54.665021,185.82841)"
       style="stroke-width:3;stroke-miterlimit:4;stroke-dasharray:none"><g
         id="g28"
         style="stroke:#000000;stroke-width:3;stroke-miterlimit:4;stroke-dasharray:none"><path
           style="fill:none;fill-opacity:1;stroke:#000000;stroke-width:3;stroke-linecap:round;stroke-miterlimit:4;stroke-dasharray:none;stroke-opacity:1"
           id="path27"
           d="m 110.24568,36.435857 c 1.13014,16.949675 -12.919942,12.075426 -12.919942,5.31081"
           sodipodi:nodetypes="cc"
           inkscape:transform-center-x="-0.6719457"
           inkscape:transform-center-y="-3.3597285" /><path
           style="fill:none;fill-opacity:1;stroke:#000000;stroke-width:3;stroke-linecap:round;stroke-miterlimit:4;stroke-dasharray:none;stroke-opacity:1"
           id="path28-9"
           d="m 110.33404,36.435857 c -1.13014,16.949675 12.91995,12.075426 12.91995,5.31081"
           sodipodi:nodetypes="cc"
           inkscape:transform-center-x="0.67194401"
           inkscape:transform-center-y="-3.3597285" /></g><path
         id="rect28"
         style="fill:#000000;fill-opacity:1;stroke:none;stroke-width:3;stroke-linecap:round;stroke-miterlimit:4;stroke-dasharray:none;stroke-opacity:1"
         d="m 106.00483,34.002023 c -1.3879,2.462646 4.31473,7.127108 4.31473,7.127108 0,0 5.70264,-4.66446 4.31474,-7.127108 -1.3879,-2.462648 -7.24157,-2.462646 -8.62947,0 z"
         sodipodi:nodetypes="zczz" /></g></g></svg>
